<svg width="416" height="416" viewBox="0 0 416 416" fill="none" xmlns="http://www.w3.org/2000/svg">
<path d="M187.669 416C134.149 410.774 89.4904 388.302 53.6942 348.583C17.8981 308.864 0 262.004 0 208C0 153.997 17.8981 107.136 53.6942 67.4172C89.4904 27.6986 134.149 5.22615 187.669 0V62.7136C151.525 67.5914 121.637 83.7924 98.005 111.317C74.3726 138.841 62.5563 171.069 62.5563 208C62.5563 244.931 74.3726 277.159 98.005 304.684C121.637 332.208 151.525 348.41 187.669 353.288V416ZM229.373 416V353.288C262.042 349.106 289.67 335.518 312.261 312.523C334.851 289.528 348.578 261.655 353.443 228.905H416C411.134 278.728 391.238 321.146 356.31 356.162C321.384 391.176 279.07 411.122 229.373 416ZM353.443 187.096C348.578 154.345 334.851 126.473 312.261 103.478C289.67 80.4825 262.042 66.8946 229.373 62.7136V0C279.07 4.87774 321.384 24.8242 356.31 59.8393C391.238 94.8544 411.134 137.273 416 187.096H353.443Z" fill="#7FB197"/>
</svg>