<svg width="1024" height="1024" viewBox="0 0 1024 1024" fill="none" xmlns="http://www.w3.org/2000/svg">
<path d="M491.669 615C438.149 609.774 393.49 587.302 357.694 547.583C321.898 507.864 304 461.004 304 407C304 352.997 321.898 306.136 357.694 266.417C393.49 226.699 438.149 204.226 491.669 199V261.714C455.525 266.591 425.637 282.792 402.005 310.317C378.373 337.841 366.556 370.069 366.556 407C366.556 443.931 378.373 476.159 402.005 503.684C425.637 531.208 455.525 547.41 491.669 552.288V615ZM533.373 615V552.288C566.042 548.106 593.67 534.518 616.261 511.523C638.851 488.528 652.578 460.655 657.443 427.905H720C715.134 477.728 695.238 520.146 660.31 555.162C625.384 590.176 583.07 610.122 533.373 615ZM657.443 386.096C652.578 353.345 638.851 325.473 616.261 302.478C593.67 279.482 566.042 265.895 533.373 261.714V199C583.07 203.878 625.384 223.824 660.31 258.839C695.238 293.854 715.134 336.273 720 386.096H657.443Z" fill="#7FB197"/>
<path d="M181.034 781.054H150.406V759.916H181.034C185.553 759.916 189.179 759.165 191.913 757.661C194.702 756.157 196.738 754.096 198.022 751.478C199.361 748.805 200.03 745.797 200.03 742.455C200.03 739.002 199.361 735.799 198.022 732.847C196.738 729.839 194.702 727.416 191.913 725.578C189.179 723.74 185.553 722.821 181.034 722.821H160.281V823.329H133V701.684H181.034C190.741 701.684 199.054 703.438 205.972 706.947C212.945 710.456 218.273 715.274 221.955 721.401C225.693 727.472 227.562 734.434 227.562 742.288C227.562 750.141 225.693 756.964 221.955 762.757C218.273 768.55 212.945 773.061 205.972 776.292C199.054 779.467 190.741 781.054 181.034 781.054ZM295.931 801.523V732.931H322.207V823.329H297.605L295.931 801.523ZM298.692 783.059L305.889 782.892C305.889 788.963 305.164 794.561 303.713 799.685C302.319 804.81 300.199 809.265 297.354 813.053C294.564 816.84 291.077 819.792 286.893 821.909C282.765 823.97 277.939 825 272.416 825C267.953 825 263.852 824.387 260.115 823.162C256.433 821.881 253.252 819.904 250.575 817.23C247.897 814.501 245.833 811.02 244.382 806.786C242.931 802.498 242.206 797.373 242.206 791.414V732.931H268.315V791.581C268.315 793.92 268.594 795.925 269.152 797.596C269.766 799.212 270.575 800.549 271.579 801.607C272.639 802.665 273.922 803.444 275.429 803.946C276.991 804.448 278.692 804.698 280.533 804.698C285.164 804.698 288.79 803.751 291.412 801.857C294.09 799.908 295.959 797.318 297.019 794.087C298.134 790.801 298.692 787.125 298.692 783.059ZM364.802 752.23V823.329H338.609V732.931H363.212L364.802 752.23ZM361.371 774.955L354.844 775.122C354.844 768.327 355.681 762.228 357.354 756.825C359.028 751.423 361.399 746.827 364.468 743.04C367.592 739.197 371.302 736.272 375.597 734.267C379.949 732.262 384.747 731.26 389.991 731.26C394.23 731.26 398.108 731.872 401.622 733.098C405.137 734.323 408.15 736.3 410.661 739.03C413.227 741.703 415.179 745.268 416.518 749.724C417.857 754.124 418.527 759.554 418.527 766.015V823.329H392.25V765.932C392.25 762.144 391.72 759.22 390.66 757.159C389.6 755.099 388.038 753.651 385.974 752.815C383.966 751.979 381.511 751.562 378.61 751.562C375.542 751.562 372.92 752.174 370.743 753.4C368.568 754.569 366.782 756.212 365.388 758.329C363.993 760.446 362.961 762.924 362.292 765.765C361.678 768.605 361.371 771.669 361.371 774.955ZM473.425 804.698C476.21 804.698 478.637 804.169 480.704 803.111C482.766 802.052 484.356 800.576 485.476 798.682C486.643 796.733 487.232 794.394 487.232 791.664H511.831C511.831 798.237 510.133 804.029 506.727 809.042C503.38 814.055 498.865 817.982 493.172 820.822C487.479 823.608 481.068 825 473.923 825C466.897 825 460.759 823.858 455.516 821.575C450.271 819.235 445.891 815.977 442.376 811.8C438.862 807.622 436.212 802.776 434.426 797.262C432.697 791.692 431.832 785.677 431.832 779.216V777.044C431.832 770.638 432.697 764.651 434.426 759.081C436.212 753.511 438.862 748.637 442.376 744.46C445.891 740.283 450.243 737.052 455.43 734.769C460.673 732.429 466.811 731.26 473.843 731.26C481.261 731.26 487.816 732.68 493.509 735.521C499.251 738.361 503.744 742.455 506.979 747.802C510.214 753.093 511.831 759.471 511.831 766.934H487.232C487.232 764.038 486.702 761.448 485.642 759.165C484.635 756.825 483.076 754.987 480.956 753.651C478.888 752.258 476.323 751.562 473.254 751.562C470.073 751.562 467.454 752.258 465.392 753.651C463.378 754.987 461.846 756.853 460.786 759.248C459.726 761.643 459.002 764.373 458.611 767.436C458.221 770.444 458.022 773.646 458.022 777.044V779.216C458.022 782.669 458.221 785.955 458.611 789.075C459.002 792.138 459.726 794.839 460.786 797.179C461.9 799.518 463.464 801.356 465.472 802.693C467.481 804.029 470.132 804.698 473.425 804.698ZM550.328 695V823.329H524.219V695H550.328ZM546.895 774.955L540.372 775.122C540.372 768.773 541.148 762.952 542.712 757.661C544.33 752.314 546.617 747.663 549.573 743.708C552.529 739.754 556.075 736.69 560.204 734.518C564.387 732.346 568.987 731.26 574.011 731.26C578.472 731.26 582.543 731.9 586.228 733.181C589.912 734.462 593.088 736.495 595.766 739.28C598.444 742.065 600.511 745.713 601.963 750.225C603.409 754.737 604.137 760.223 604.137 766.684V823.329H577.862V766.517C577.862 762.673 577.3 759.666 576.186 757.494C575.125 755.321 573.561 753.79 571.499 752.898C569.491 752.008 567.038 751.562 564.135 751.562C560.734 751.562 557.917 752.174 555.684 753.4C553.451 754.569 551.694 756.212 550.408 758.329C549.128 760.446 548.207 762.924 547.65 765.765C547.147 768.605 546.895 771.669 546.895 774.955ZM669.407 773.785H634.681V765.013H669.407C676.659 765.013 682.545 763.843 687.065 761.504C691.639 759.109 694.959 755.878 697.027 751.812C699.142 747.746 700.203 743.179 700.203 738.111C700.203 733.153 699.142 728.586 697.027 724.409C694.959 720.231 691.639 716.889 687.065 714.383C682.545 711.821 676.659 710.54 669.407 710.54H638.28V823.329H627.986V701.684H669.407C678.335 701.684 685.838 703.216 691.917 706.279C698.055 709.342 702.688 713.603 705.81 719.062C708.932 724.52 710.496 730.814 710.496 737.943C710.496 745.407 708.932 751.84 705.81 757.243C702.688 762.59 698.082 766.684 692.003 769.524C685.924 772.365 678.389 773.785 669.407 773.785ZM785.31 807.121V760.501C785.31 756.212 784.416 752.509 782.632 749.39C780.849 746.27 778.225 743.875 774.765 742.204C771.305 740.533 767.036 739.698 761.959 739.698C757.278 739.698 753.09 740.533 749.411 742.204C745.785 743.82 742.909 746.02 740.788 748.805C738.726 751.534 737.693 754.569 737.693 757.911L727.651 757.828C727.651 754.43 728.486 751.144 730.162 747.969C731.839 744.794 734.206 741.954 737.275 739.447C740.344 736.941 743.996 734.964 748.238 733.515C752.533 732.012 757.246 731.26 762.382 731.26C768.852 731.26 774.54 732.346 779.451 734.518C784.416 736.69 788.293 739.949 791.084 744.293C793.874 748.637 795.267 754.096 795.267 760.668V804.364C795.267 807.483 795.491 810.713 795.936 814.055C796.439 817.397 797.136 820.154 798.03 822.326V823.329H787.399C786.735 821.324 786.205 818.817 785.814 815.81C785.476 812.746 785.31 809.85 785.31 807.121ZM787.651 770.694L787.822 778.381H768.156C763.02 778.381 758.419 778.854 754.349 779.801C750.332 780.692 746.926 782.028 744.135 783.811C741.35 785.538 739.198 787.626 737.693 790.077C736.241 792.528 735.518 795.313 735.518 798.432C735.518 801.662 736.327 804.614 737.944 807.288C739.621 809.961 741.961 812.106 744.976 813.721C748.045 815.281 751.671 816.06 755.854 816.06C761.434 816.06 766.34 815.03 770.582 812.969C774.877 810.908 778.417 808.207 781.208 804.865C783.998 801.523 785.867 797.875 786.815 793.92L791.169 799.685C790.441 802.47 789.102 805.338 787.153 808.29C785.251 811.187 782.772 813.916 779.703 816.478C776.634 818.985 773.008 821.045 768.825 822.661C764.696 824.22 760.01 825 754.767 825C748.854 825 743.691 823.886 739.283 821.658C734.934 819.43 731.528 816.394 729.075 812.552C726.676 808.652 725.476 804.252 725.476 799.351C725.476 794.895 726.424 790.913 728.32 787.403C730.216 783.839 732.953 780.831 736.52 778.381C740.151 775.874 744.5 773.98 749.577 772.699C754.708 771.362 760.454 770.694 766.817 770.694H787.651ZM880.958 805.784V695H891V823.329H881.627L880.958 805.784ZM818.114 779.049V777.294C818.114 770.276 818.923 763.954 820.54 758.329C822.158 752.648 824.471 747.802 827.487 743.792C830.555 739.726 834.235 736.635 838.53 734.518C842.825 732.346 847.683 731.26 853.092 731.26C858.394 731.26 863.081 732.123 867.151 733.85C871.227 735.576 874.713 738.055 877.611 741.285C880.567 744.516 882.94 748.359 884.723 752.815C886.565 757.271 887.904 762.228 888.74 767.687V789.993C888.07 795.118 886.844 799.825 885.06 804.113C883.277 808.346 880.904 812.05 877.948 815.225C874.992 818.344 871.419 820.767 867.237 822.494C863.107 824.164 858.335 825 852.926 825C847.57 825 842.745 823.886 838.45 821.658C834.154 819.43 830.496 816.283 827.487 812.217C824.471 808.095 822.158 803.222 820.54 797.596C818.923 791.971 818.114 785.789 818.114 779.049ZM828.156 777.294V779.049C828.156 784.34 828.686 789.242 829.747 793.753C830.807 798.265 832.424 802.192 834.599 805.534C836.773 808.875 839.537 811.493 842.884 813.387C846.232 815.281 850.189 816.228 854.769 816.228C860.515 816.228 865.341 815.142 869.245 812.969C873.149 810.741 876.272 807.817 878.617 804.197C880.958 800.521 882.661 796.51 883.721 792.166V766.183C883.052 763.23 882.077 760.223 880.792 757.159C879.507 754.096 877.75 751.283 875.522 748.721C873.342 746.103 870.557 744.015 867.151 742.455C863.804 740.84 859.733 740.032 854.935 740.032C850.302 740.032 846.312 740.979 842.97 742.873C839.617 744.766 836.832 747.412 834.599 750.81C832.424 754.152 830.807 758.079 829.747 762.59C828.686 767.102 828.156 772.003 828.156 777.294Z" fill="#1E2A33"/>
</svg>